<?xml version="1.0" encoding="UTF-8"?>
<svg enable-background="new 0 0 100 100" version="1.1" viewBox="0 0 100 100" xml:space="preserve" xmlns="http://www.w3.org/2000/svg">
	<path d="m76.807 73.834c-6.369 0-12.141 2.572-16.33 6.735 4.469 2.974 6.594 8.539 5.17 16.431h34.328c0-12.795-10.373-23.166-23.168-23.166z"/>
	<path d="m51.088 82.439c-8.042 0-14.558 6.521-14.558 14.561h29.116c0-8.04-6.52-14.561-14.558-14.561z"/>
<polygon points="86.682 8.988 86.682 3.25 67.216 3.25 67.216 8.988 54.658 8.988 54.675 11.671 54.671 11.671 54.671 50.426 60.847 56.482 60.847 15.357 67.496 15.357 67.496 67.202 73.672 67.202 73.672 15.357 80.333 15.357 80.333 67.202 86.509 67.202 86.509 15.357 93.605 15.357 93.605 71.563 99.975 77.113 99.975 8.988"/>
	<path d="M51.084,56.997H21.633L18.368,97h11.793c0-11.539,9.388-20.925,20.927-20.925c1.51,0,2.98,0.167,4.4,0.473l0.503-0.497   c1.522-1.512,3.187-2.818,4.95-3.945v-4.903L51.084,56.997z"/>
	<path d="m0 41.467v55.533h18.313v-55.533l-9.234-22.557-9.079 22.557zm13.874 8.988c0 2.547-2.064 4.615-4.619 4.615-2.55 0-4.615-2.068-4.615-4.615 0-2.55 2.064-4.614 4.615-4.614 2.555 0 4.619 2.064 4.619 4.614z"/>
</svg>
