<?xml version="1.0" encoding="UTF-8"?>
<svg version="1.0" viewBox="0 0 325.9 392.88" xmlns="http://www.w3.org/2000/svg" xmlns:cc="http://creativecommons.org/ns#" xmlns:dc="http://purl.org/dc/elements/1.1/" xmlns:rdf="http://www.w3.org/1999/02/22-rdf-syntax-ns#">
<metadata>
<rdf:RDF>
<cc:Work rdf:about="">
<dc:format>image/svg+xml</dc:format>
<dc:type rdf:resource="http://purl.org/dc/dcmitype/StillImage"/>
<dc:title/>
</cc:Work>
</rdf:RDF>
</metadata>
<rect x="2.5" y="42.152" width="297.14" height="297.14" opacity="0" stroke-width="5"/>
<path d="m314.19 317.12c-22.514 0.4374-73.075-22.733-101.71-46.611-33.146-27.637-36.257-27.214-46.335 6.2884-3.1164 10.36-6.2167 14.532-9.8426 13.246-4.0329-1.4304-4.4131-0.72518-1.5974 2.9599 4.7863 6.2637-17.762 30.165-25.704 27.245-4.255-1.5645-4.5816-0.25458-1.5634 6.2735 2.098 4.5375 1.9867 10.34-0.24687 12.893-2.2342 2.5534-2.5961 6.5123-0.8047 8.7973 6.0155 7.6731 0.53208 12.267-7.3475 6.1555-7.3318-5.6861-7.4805-5.5254-3.2861 3.547 2.6445 5.7198 2.3796 11.651-0.66599 14.903-2.7822 2.9704-7.3936 9.0767-10.248 13.57-2.8539 4.4934-7.5188 7.3132-10.366 6.2663-7.567-2.7822-13.927-18.773-9.485-23.85 2.1006-2.4011 1.4183-6.4668-1.5165-9.034-4.2922-3.7555-3.366-8.6931 4.7364-25.247 6.7916-13.875 8.7702-21.619 6.0748-23.772-2.7217-2.174 2.0282-20.166 14.881-56.371 10.383-29.247 19.501-55.511 20.262-58.364 0.76094-2.8521-2.7216-9.095-7.7394-13.872-5.018-4.7773-22.626-26.782-39.128-48.898-16.503-22.116-33.56-44.589-37.904-49.939-28.607-35.231-33.4-42.455-34.069-51.344-0.41148-5.4613 1.6429-13.365 4.5652-17.562 5.7265-8.2265 31.049-11.252 46.529-5.561 16.476 6.0578 69.241 63.859 79.608 87.206 13.785 31.044 17.507 30.664 30.37-3.0992 17.187-45.116 32.374-77.046 39.78-83.634 10.672-9.4945 33.703-12.344 45.948-5.6847 6.0053 3.2655 13.721 12.357 17.146 20.202 6.145 14.076 6.0535 14.496-6.9098 31.723-8.5276 11.332-20.823 37.421-35.042 74.35l-21.905 56.892 29.549 31.02c36.713 38.54 52.302 53.257 65.591 61.921 12.688 8.272 19.155 21.095 13.052 25.879-2.7084 2.123-2.4134 3.1134 0.73555 2.471 2.891-0.5897 5.7088 1.1465 6.2615 3.8582 0.5533 2.7117-4.6989 5.041-11.671 5.1764z"/>
</svg>
